<svg width="820" height="439" viewBox="0 0 820 439" fill="none" xmlns="http://www.w3.org/2000/svg">
<g opacity="0.67" filter="url(#filter0_d)">
<path d="M-54.4375 71.4581C-54.4375 63.2792 -47.8072 56.6489 -39.6284 56.6489H342.065C344.67 56.6489 347.228 57.336 349.483 58.6407L763.217 291.28C765.552 292.593 767.557 294.487 768.607 296.951C772.883 306.985 772.113 318.287 763.647 323.527L-54.4375 797.619V71.4581Z" fill="#848696"/>
</g>
<path d="M-75.9956 47.3934V-187.683C-75.9956 -199.19 -63.4444 -206.301 -53.5737 -200.385L761.869 288.32C771.552 294.123 771.442 308.193 761.669 313.843L-53.7743 785.286C-63.647 790.994 -75.9956 783.87 -75.9956 772.466V418.238V47.3934Z" fill="#0B0C16"/>
<g opacity="0.35">
<g opacity="0.4" filter="url(#filter1_i)">
<path d="M-269.733 -232.655C-246.515 -244.358 -210.961 -243.419 -189.392 -230.533L550.402 211.436C573.153 225.028 572.667 246.364 549.309 259.395C525.276 272.803 486.338 272.277 463.045 258.23L-273.08 -185.704C-295.475 -199.21 -293.961 -220.444 -269.733 -232.655Z" fill="#F1F3F4"/>
</g>
<path opacity="0.7" d="M520.096 221.218L512.164 229.924L511.66 230.478L512.436 230.926L524.644 237.966L507.534 236.306L506.445 236.2L505.941 236.754L498.008 245.46L495.366 235.728L495.198 235.109L494.109 235.003L476.999 233.343L492.476 228.989L493.461 228.712L493.292 228.093L490.65 218.361L502.858 225.402L503.635 225.85L504.619 225.572L520.096 221.218Z" stroke="white" stroke-width="2.46819"/>
</g>
<path opacity="0.06" d="M-31.0503 17.5691L606.612 403.48L-31.0503 772.166V17.5691Z" fill="white"/>
<path d="M689.485 316.766C682.272 316.766 629.021 350.248 629.021 354.005C629.021 357.762 622.958 363.133 630.17 363.133L684.494 359.615L755.885 316.766H689.485Z" fill="url(#paint0_linear)"/>
<path d="M549.079 313.4C548.037 312.716 547.409 311.552 547.409 310.305V301.054L623.355 265.074C627.066 263.316 631.391 263.421 635.013 265.358L709.088 304.967V315.738C709.088 317.035 708.41 318.237 707.299 318.907L635.222 362.42C631.562 364.629 626.958 364.542 623.385 362.195L549.079 313.4Z" fill="#64647D"/>
<path opacity="0.56" d="M549.079 314.017C548.037 313.333 547.409 312.17 547.409 310.923V301.671L609.791 272.117C618.619 267.935 628.724 274.654 628.283 284.412L625.567 344.565L630.441 350.11L630.419 364.555C630.419 364.555 626.917 365.046 623.653 362.981L549.079 314.017Z" fill="#14162A"/>
<path d="M549.106 302.387C546.725 300.866 546.857 297.346 549.346 296.007L622.747 256.524C626.781 254.354 631.661 254.475 635.582 256.843L707.307 300.143C709.692 301.583 709.692 305.042 707.307 306.482L636.147 349.442C631.926 351.989 626.626 351.922 622.472 349.267L549.106 302.387Z" fill="#FAFAFA"/>
<g filter="url(#filter2_i)">
<path d="M632.533 285.148C634.665 285.208 636.344 286.584 636.283 288.22L635.795 301.244L614.955 300.652L615.444 287.628C615.505 285.992 617.283 284.715 619.416 284.775L632.533 285.148Z" fill="#F47264"/>
</g>
<g filter="url(#filter3_i)">
<rect width="18.5815" height="18.5815" transform="matrix(-0.0322547 0.86032 -1.12151 -0.0318555 635.794 301.243)" fill="#FF3C27"/>
</g>
<g filter="url(#filter4_i)">
<path d="M652.772 301.725C654.905 301.786 656.584 303.161 656.523 304.797L656.146 314.859C656.084 316.495 654.306 317.772 652.173 317.711L635.195 317.229L635.794 301.243L652.772 301.725Z" fill="#59E7F1"/>
</g>
<path d="M640.338 270.074V253.521C640.353 248.947 642.792 244.723 646.75 242.431L686.117 219.281" stroke="#FF5A6F" stroke-width="1.40506"/>
<path d="M640.338 271.379C641.589 271.379 642.602 270.795 642.602 270.074C642.602 269.353 641.589 268.769 640.338 268.769C639.087 268.769 638.074 269.353 638.074 270.074C638.074 270.795 639.087 271.379 640.338 271.379Z" fill="#FF5A6F"/>
<path d="M655.679 278.48V261.927C655.689 257.354 658.128 253.131 662.081 250.836L737.914 207.509C740.221 206.191 741.645 203.737 741.645 201.08V196.957" stroke="#FFAD6F" stroke-width="1.40506"/>
<path d="M657.943 278.48C657.943 279.201 656.93 279.785 655.679 279.785C654.428 279.785 653.415 279.201 653.415 278.48C653.415 277.759 654.428 277.17 655.679 277.17C656.93 277.17 657.943 277.755 657.943 278.48Z" fill="#FFAD6F"/>
<path d="M590.565 286.657V269.988C590.562 265.416 588.127 261.191 584.173 258.897L534.373 230.679C531.881 229.267 531.868 225.682 534.349 224.251L697.823 129.984C700.116 128.662 701.529 126.216 701.529 123.569V117.028" stroke="#20D19C" stroke-width="1.40506"/>
<path d="M592.825 286.658C592.825 287.378 591.812 287.963 590.566 287.963C589.32 287.963 588.302 287.378 588.302 286.658C588.302 285.937 589.315 285.353 590.566 285.353C591.817 285.353 592.825 285.937 592.825 286.658Z" fill="#20D19C"/>
<path d="M606.609 278.018V261.349C606.606 256.777 604.171 252.552 600.217 250.258L478.486 182.786C475.969 181.391 475.936 177.783 478.428 176.343L550.81 134.486" stroke="#FF5A6F" stroke-width="1.40506"/>
<path d="M608.867 278.019C608.867 278.74 607.854 279.324 606.608 279.324C605.362 279.324 604.344 278.74 604.344 278.019C604.344 277.299 605.357 276.715 606.608 276.715C607.859 276.715 608.867 277.299 608.867 278.019Z" fill="#FF5A6F"/>
<path d="M622.523 270.106C622.523 270.827 621.511 271.411 620.264 271.411C619.018 271.411 618 270.827 618 270.106C618 269.386 619.013 268.802 620.264 268.802C621.516 268.802 622.523 269.386 622.523 270.106Z" fill="#4FB0FF"/>
<path d="M620.184 270.614V253.945C620.181 249.373 617.746 245.149 613.792 242.855L588.718 229.354L546.46 204.61M546.46 204.61L476.902 164.858C474.42 163.439 474.414 159.863 476.89 158.436L567.223 106.373C569.517 105.051 570.93 102.605 570.93 99.9577V93.509M546.46 204.61L600.042 173.379" stroke="#4FB0FF" stroke-width="1.40506"/>
<path fill-rule="evenodd" clip-rule="evenodd" d="M600.94 174.603C608.59 179.154 614.791 175.628 614.791 166.727C614.791 157.824 608.59 146.919 600.94 142.368C593.289 137.816 587.09 141.344 587.09 150.246C587.09 159.148 593.289 170.051 600.94 174.603Z" fill="#CC0001"/>
<path fill-rule="evenodd" clip-rule="evenodd" d="M595.711 165.002L596.677 165.576V147.276L595.711 146.702V165.002Z" fill="white"/>
<path fill-rule="evenodd" clip-rule="evenodd" d="M595.711 165.002L596.677 165.576V147.276L595.711 146.702V165.002Z" fill="white"/>
<path fill-rule="evenodd" clip-rule="evenodd" d="M591.753 151.013C591.77 149.857 593.488 150.845 593.488 151.989L593.504 152.99L594.817 153.771V152.855C594.902 149.841 590.389 147.161 590.424 150.166V155.439C590.389 158.403 594.903 161.164 594.823 158.057V156.95L593.488 156.156V157.338C593.488 158.484 591.773 157.481 591.756 156.307V150.958L591.753 151.013Z" fill="white"/>
<path fill-rule="evenodd" clip-rule="evenodd" d="M599.256 154.284C599.256 154.284 599.485 154.025 600.086 153.995C600.848 153.957 601.593 154.89 601.485 154.771C602.085 155.436 602.312 156.322 602.355 157.184V163.428L603.2 163.93V165.077L601.027 163.784L601.026 156.321C601.026 155.232 599.448 154.327 599.433 155.424L599.435 155.374V162.836L597.485 161.677V160.528L598.104 160.898V153.906L597.37 153.465V152.323L599.25 153.442L599.256 154.284Z" fill="white"/>
<path fill-rule="evenodd" clip-rule="evenodd" d="M609.1 166.525C609.142 167.387 609.369 168.273 609.969 168.94C609.856 168.812 610.261 169.288 610.679 169.531C610.898 169.656 611.957 170.287 611.957 170.287V169.14C611.957 169.14 611.423 168.814 611.138 168.647C610.777 168.437 610.465 168.052 610.439 167.445L610.442 161.252L610.439 161.239L611.721 162.002V160.879L610.434 160.113L610.442 160.099V157.697L609.1 156.898V166.525Z" fill="white"/>
<path fill-rule="evenodd" clip-rule="evenodd" d="M606.683 165.188V164.006L608.016 164.8V165.906C608.098 169.015 603.584 166.253 603.619 163.291V158.016C603.584 155.011 608.094 157.69 608.012 160.705V163.235C608.012 163.393 607.901 163.455 607.768 163.375L604.949 161.696V164.157C604.967 165.331 606.683 166.334 606.683 165.188ZM606.686 159.839C606.686 158.695 604.975 157.668 604.952 158.799V160.533L606.682 161.561L606.686 159.839Z" fill="white"/>
<path d="M631.815 166.869C631.815 164.919 633.173 164.147 634.849 165.144L693.507 200.041C695.183 201.038 696.541 203.427 696.541 205.377V226.559C696.541 228.509 695.183 229.281 693.507 228.285L634.849 193.387C633.173 192.39 631.815 190.001 631.815 188.051V166.869Z" fill="white"/>
<path d="M651.868 182.828C652.475 183.19 653.05 183.519 653.623 183.886C653.705 183.934 653.818 184.175 653.852 184.309C654.412 186.552 654.964 188.796 655.511 191.041C655.552 191.234 655.622 191.432 655.716 191.625V185.132L657.607 186.257V199.731C657.018 199.381 656.435 199.045 655.853 198.675C655.778 198.63 655.677 198.404 655.642 198.27C655.082 196.178 654.531 194.089 653.978 191.998C653.937 191.811 653.862 191.618 653.76 191.437V197.426L651.868 196.3V182.828Z" fill="#D52D1F"/>
<path fill-rule="evenodd" clip-rule="evenodd" d="M634.848 172.729V186.171L636.754 187.311V181.71L637.552 182.185C638.371 182.676 638.718 183.283 638.718 184.234V188.111C638.718 188.176 638.722 188.243 638.725 188.308C638.729 188.37 638.732 188.431 638.732 188.488L640.622 189.612C640.622 189.3 640.623 188.991 640.624 188.684C640.626 188.075 640.627 187.473 640.622 186.866C640.621 186.714 640.62 186.563 640.62 186.411C640.617 185.843 640.615 185.275 640.573 184.683C640.504 183.721 640.01 182.821 639.237 182.149C639.195 182.113 639.155 182.074 639.102 182.024C639.068 181.991 639.028 181.953 638.979 181.908C640.155 182.244 640.577 181.903 640.62 180.62C640.637 180.224 640.638 179.817 640.62 179.401C640.595 178.503 640.274 177.475 639.724 176.538C639.175 175.601 638.442 174.83 637.682 174.392C637.19 174.099 636.698 173.806 636.206 173.513C635.845 173.298 635.484 173.084 635.123 172.869C635.062 172.833 635.002 172.804 634.939 172.774C634.91 172.759 634.879 172.744 634.848 172.729ZM636.866 179.51C636.827 179.482 636.79 179.45 636.753 179.415V176.07C636.877 176.144 637 176.213 637.122 176.282C637.404 176.439 637.681 176.595 637.953 176.799C638.318 177.072 638.623 177.528 638.66 178.003C638.712 178.603 638.717 179.18 638.674 179.724C638.63 180.222 638.243 180.329 637.79 180.06C637.56 179.922 637.328 179.785 637.097 179.647C637.02 179.601 636.943 179.555 636.866 179.51Z" fill="#D52D1F"/>
<path d="M662.878 193.813C662.896 193.415 662.894 193.004 662.872 192.583C662.857 192.391 662.804 192.184 662.716 191.979C662.628 191.774 662.509 191.578 662.369 191.409C662.229 191.241 662.074 191.105 661.916 191.013C661.758 190.921 661.603 190.877 661.465 190.884C661.305 190.877 661.171 190.936 661.077 191.055C660.984 191.174 660.935 191.347 660.938 191.555C660.938 193.828 660.931 196.097 660.938 198.375C660.938 198.987 661.347 199.68 661.882 200.051C662.122 200.209 662.357 200.256 662.54 200.183C662.723 200.111 662.839 199.924 662.863 199.661C662.909 198.906 662.875 198.088 662.875 197.259L661.95 196.709V194.46L664.783 196.145C664.796 196.229 664.805 196.31 664.809 196.389C664.809 197.788 664.82 199.195 664.809 200.588C664.791 202.338 663.821 203.081 662.351 202.52C660.801 201.928 659.074 199.365 659.04 197.514C658.994 195.035 659.009 192.59 659.04 190.156C659.053 188.947 659.99 188.193 661.014 188.43C661.556 188.55 662.136 188.883 662.684 189.388C663.231 189.892 663.721 190.545 664.093 191.267C664.788 192.636 664.879 193.8 664.794 194.954L662.878 193.813Z" fill="#D52D1F"/>
<path d="M665.876 200.193L667.787 201.33C667.787 201.711 667.787 202.067 667.787 202.423C667.784 202.581 667.812 202.754 667.865 202.933C667.919 203.111 667.998 203.29 668.098 203.458C668.199 203.626 668.317 203.779 668.447 203.908C668.576 204.036 668.713 204.137 668.849 204.204C669.394 204.479 669.764 204.142 669.724 203.442C669.686 202.788 669.391 202.163 669.015 201.525C668.187 200.122 667.294 198.742 666.562 197.3C665.221 194.655 665.822 191.959 668.019 192.565C669.799 193.057 671.497 195.506 671.652 197.754C671.682 198.185 671.652 198.587 671.652 199.035L669.711 197.88C669.711 197.449 669.735 197.033 669.711 196.6C669.68 196.13 669.427 195.701 669.069 195.346C668.91 195.179 668.736 195.058 668.569 194.997C668.401 194.937 668.247 194.939 668.123 195.005C667.716 195.193 667.657 195.867 668 196.702C668.158 197.06 668.34 197.412 668.543 197.752C669.336 199.125 670.195 200.468 670.921 201.869C672.388 204.702 671.643 207.533 669.192 206.597C667.637 206.002 665.969 203.484 665.888 201.591C665.86 201.12 665.876 200.676 665.876 200.193Z" fill="#D52D1F"/>
<path d="M690.525 219.302L689.007 218.399V217.968C689.007 216.473 689.013 214.981 689.007 213.482C688.997 213.179 688.965 212.863 688.908 212.538C688.844 212.131 688.599 211.868 688.308 211.693C688.017 211.519 687.779 211.513 687.713 211.836C687.654 212.09 687.62 212.366 687.612 212.659C687.602 214.15 687.612 215.651 687.612 217.147V217.561L686.1 216.661V208.612L687.405 209.387C687.413 209.586 687.421 209.767 687.434 210.076C687.804 209.615 688.277 209.859 688.832 210.26C689.385 210.66 689.774 211.251 690.148 211.938C690.249 211.842 690.34 211.771 690.415 211.68C690.509 211.562 690.642 211.502 690.8 211.505C690.958 211.508 691.134 211.575 691.31 211.698C692.586 212.499 693.345 213.752 693.388 215.264C693.442 217.148 693.42 218.992 693.429 220.851C693.425 220.91 693.416 220.967 693.402 221.018L691.911 220.131V219.7C691.911 218.18 691.911 216.66 691.911 215.14C691.909 214.912 691.892 214.676 691.862 214.433C691.804 213.979 691.635 213.704 691.295 213.473C690.918 213.215 690.703 213.237 690.61 213.611C690.554 213.856 690.528 214.126 690.531 214.413C690.524 215.893 690.531 217.382 690.531 218.865L690.525 219.302Z" fill="#D52D1F"/>
<path d="M645.126 192.293L643.217 191.157V179.922L641.291 178.776V176.56L647.038 179.979V182.165L645.126 181.027V192.293Z" fill="#D52D1F"/>
<path fill-rule="evenodd" clip-rule="evenodd" d="M680.471 208.68C680.466 208.875 680.461 209.07 680.451 209.262L680.503 209.294C680.503 209.46 680.501 209.625 680.498 209.789C680.493 210.158 680.488 210.527 680.509 210.91C680.554 211.688 680.775 212.487 681.295 213.292C681.697 213.916 682.183 214.316 682.677 214.629C683.886 215.398 684.808 215.492 684.99 214.044C685.128 212.94 685.097 211.702 685.065 210.481C685.023 208.854 684.259 207.54 682.883 206.69C681.681 205.946 680.808 205.945 680.561 207.401C680.492 207.799 680.481 208.24 680.471 208.68ZM683.578 211.14L683.601 211.155C683.597 211.279 683.595 211.405 683.593 211.53C683.586 211.89 683.579 212.25 683.537 212.586C683.472 213.095 683.188 213.188 682.773 212.928C682.679 212.876 682.586 212.802 682.498 212.711C682.411 212.619 682.331 212.512 682.263 212.396C682.196 212.28 682.142 212.157 682.105 212.036C682.068 211.913 682.049 211.794 682.049 211.684C682.005 210.704 682.002 209.746 682.041 208.815C682.061 208.267 682.383 208.171 682.801 208.42C683.22 208.669 683.483 209.127 683.562 209.734C683.571 209.798 683.576 209.861 683.578 209.921V211.14Z" fill="#D52D1F"/>
<path d="M648.296 180.719L650.164 181.83V195.279L648.296 194.167V180.719Z" fill="#D52D1F"/>
<path d="M679.569 207.616C679.491 207.57 679.431 207.548 679.372 207.513L678.109 206.762C678.066 206.529 678.041 206.326 677.985 206.114C677.942 205.921 677.852 205.721 677.729 205.546C677.607 205.371 677.458 205.232 677.308 205.149C676.98 204.954 676.723 204.961 676.609 205.263C676.542 205.435 676.505 205.636 676.498 205.859C676.484 206.555 676.488 207.264 676.498 207.975C676.5 208.155 676.521 208.346 676.56 208.542C676.594 208.764 676.69 209.003 676.83 209.212C676.97 209.422 677.144 209.588 677.321 209.681C677.495 209.794 677.665 209.826 677.795 209.769C677.926 209.713 678.006 209.573 678.02 209.379C678.061 209.029 678.205 209.058 678.482 209.237C678.838 209.474 679.196 209.662 679.551 209.873C679.647 211.822 678.763 212.403 677.178 211.343C676.851 211.128 676.528 210.858 676.22 210.543C675.574 209.871 675.149 209.007 675.097 208.208C675.007 206.837 674.927 205.445 675.053 204.216C675.213 202.654 676.112 202.633 677.416 203.422C679.062 204.43 679.617 206.157 679.569 207.616Z" fill="#D52D1F"/>
<path d="M673.232 206.817C673.359 206.892 673.484 206.996 673.6 207.123C673.717 207.249 673.822 207.396 673.91 207.553C673.998 207.711 674.067 207.878 674.112 208.042C674.158 208.206 674.179 208.365 674.175 208.51C674.173 208.729 674.114 208.909 674.006 209.026C673.898 209.145 673.746 209.195 673.57 209.171C673.394 209.148 673.2 209.052 673.015 208.895C672.829 208.738 672.66 208.527 672.528 208.29C672.396 208.053 672.307 207.8 672.273 207.563C672.239 207.325 672.261 207.114 672.336 206.957C672.412 206.799 672.537 206.701 672.697 206.676C672.856 206.651 673.042 206.701 673.232 206.817Z" fill="#D52D1F"/>
<path d="M744.02 248.58V250.969L735.523 245.914V243.525L738.559 245.331V235.755L735.523 233.949V231.559L744.02 236.615V239.004L740.984 237.199V246.774L744.02 248.58Z" fill="white"/>
<path fill-rule="evenodd" clip-rule="evenodd" d="M713.023 235.698L730.866 246.313V225.552L713.023 214.937V235.698ZM727.341 226.674L729.662 228.055C729.662 228.055 727.52 240.424 727.49 240.407C727.4 240.977 727.132 240.922 726.597 240.603L724.99 239.647C724.364 239.275 724.186 239.065 724.097 238.388L722.222 227.385L720.347 236.157C720.169 236.674 719.99 236.672 719.454 236.353L717.757 235.344C717.133 234.972 716.954 234.762 716.864 234.085L714.454 219.006L716.984 220.512L718.68 232.863L720.644 223.521C720.734 222.951 721.002 222.902 721.537 223.221L722.787 223.965C723.323 224.283 723.591 224.547 723.68 225.327L725.644 237.006L727.341 226.674Z" fill="white"/>
<path fill-rule="evenodd" clip-rule="evenodd" d="M748.676 256.912L766.519 267.527V246.765L748.676 236.15V256.912ZM760.3 256.899C760.3 258.458 760.389 259.654 760.568 260.694L762.979 262.129C762.889 261.349 762.8 259.945 762.8 258.178C762.711 256.047 762.175 255.417 760.925 254.362C762.354 254.9 762.979 254.545 762.979 251.947C762.979 249.869 762.711 248.879 762.175 248.041C761.818 247.413 761.194 246.833 760.211 246.249L752.696 241.778V256.15L755.196 257.637V252.01L758.678 254.081C759.393 254.506 759.66 254.769 759.928 255.137C760.211 255.495 760.3 255.86 760.3 256.899ZM755.212 249.717V245.751L759.244 248.15C759.78 248.469 759.959 248.679 760.048 248.836C760.226 249.151 760.405 249.568 760.405 250.815C760.405 252.062 760.226 252.371 760.048 252.472C759.959 252.523 759.78 252.521 759.244 252.202C759.23 252.211 755.212 249.717 755.212 249.717Z" fill="white"/>
<path fill-rule="evenodd" clip-rule="evenodd" d="M784.466 278.204L802.309 288.819V268.057L784.466 257.442V278.204ZM788.353 262.974V277.346L794.44 280.967C796.136 281.976 797.118 282.249 797.832 281.947C798.725 281.543 799.172 280.146 799.172 276.596C799.172 273.046 798.725 271.119 797.832 269.652C797.118 268.501 796.136 267.604 794.44 266.595L788.353 262.974ZM796.67 275.109C796.67 278.226 796.491 278.847 795.955 278.943C795.598 279.043 795.152 278.881 794.258 278.35L790.851 276.322V266.851L794.244 268.869C795.136 269.4 795.583 269.666 795.94 270.294C796.491 271.159 796.67 271.992 796.67 275.109Z" fill="white"/>
<path d="M769.884 254.377V251.987L780.434 258.265V262.853L778.203 261.525V259.343L773.902 256.785V260.213L777.309 262.241V264.526L773.917 262.508V266.351L778.307 268.963V266.47L780.538 267.798V272.698L769.899 266.368V263.978L771.595 264.988V255.412L769.884 254.394V254.377Z" fill="white"/>
<path d="M540.948 55.4156C540.948 53.1872 542.5 52.3047 544.416 53.4442L609.141 91.9517C611.056 93.0912 612.609 95.8209 612.609 98.0493V118.223C612.609 120.451 611.056 121.334 609.141 120.195L544.416 81.6869C542.5 80.5474 540.948 77.8177 540.948 75.5893V55.4156Z" fill="white"/>
<path fill-rule="evenodd" clip-rule="evenodd" d="M557.212 82.6371L557.221 82.6424V82.6426L557.212 82.6371ZM557.221 82.6424L560.837 84.7298V79.5437L561.909 80.1626L564.527 86.8604L568.72 89.2813L565.533 81.459C567.043 81.4264 568.096 80.2163 568.096 78.0965C568.096 75.0731 565.962 71.3987 563.362 69.8978L557.212 66.3472V68.4669C555.88 66.2555 554.128 64.3402 552.171 63.2109C548.183 60.9083 544.922 62.7482 544.922 67.3962C544.922 72.0442 548.183 77.661 552.181 79.969C554.138 81.0983 555.889 81.2062 557.221 80.5336V82.6424ZM554.751 76.0311C554.089 76.4135 553.176 76.3592 552.169 75.7783C550.176 74.6273 548.545 71.8029 548.545 69.5003C548.545 67.1978 550.176 66.2561 552.169 67.4077C553.176 67.9886 554.08 68.9731 554.751 70.135L557.211 68.7149V80.2924L554.751 76.0311ZM560.835 72.0987V75.8864L562.81 77.0266C563.714 77.5484 564.459 77.14 564.459 76.0958C564.459 75.0521 563.714 73.7612 562.81 73.2394L560.835 72.0987Z" fill="#00AE4D"/>
<path d="M595.528 103.684L595.258 103.958C595.667 104.614 596.218 105.211 596.926 105.62C597.755 106.099 598.416 105.965 598.416 105.05C598.416 104.329 598.109 103.839 597.131 102.887L596.758 102.521C596.208 101.989 595.91 101.612 595.91 101.139C595.91 100.558 596.376 100.601 596.814 100.854C597.224 101.09 597.671 101.607 597.988 102.113L598.276 101.828C597.867 101.203 597.41 100.714 596.814 100.369C596.059 99.9339 595.444 100.041 595.444 100.902C595.444 101.558 595.789 102.177 596.618 102.989L597.037 103.404C597.662 104.023 597.951 104.329 597.951 104.781C597.951 105.437 597.457 105.443 596.926 105.136C596.376 104.818 595.882 104.265 595.528 103.684Z" fill="black"/>
<path d="M594.969 104.156L594.839 103.64C594.577 103.672 594.326 103.613 594.018 103.435C593.59 103.188 593.385 102.769 593.385 102.231V98.949L594.932 99.8418V99.3254L593.385 98.4326V96.6675L592.9 96.3882V101.951C592.9 102.79 593.264 103.505 593.99 103.925C594.354 104.135 594.671 104.2 594.969 104.156Z" fill="black"/>
<path d="M590.655 101.945V98.9437C590.758 97.873 591.577 97.7976 592.407 98.4056V97.8356C591.671 97.2812 590.99 97.3192 590.655 97.8675L590.646 96.8511L590.18 96.582V101.682L590.655 101.956V101.945Z" fill="black"/>
<path fill-rule="evenodd" clip-rule="evenodd" d="M585.128 96.2155C585.128 94.7846 586.134 94.1929 587.374 94.9083C588.623 95.6292 589.629 97.3725 589.629 98.8143C589.629 100.245 588.613 100.832 587.374 100.116C586.134 99.4007 585.128 97.647 585.128 96.2155ZM585.601 96.4771C585.601 97.607 586.393 98.9896 587.371 99.5543C588.359 100.125 589.151 99.6568 589.151 98.5269C589.151 97.3971 588.359 96.0144 587.371 95.4444C586.393 94.8797 585.601 95.3472 585.601 96.4771Z" fill="black"/>
<path fill-rule="evenodd" clip-rule="evenodd" d="M580.71 92.2461C581.083 91.74 581.726 91.6489 582.462 92.0736C583.683 92.7788 584.689 94.5216 584.689 95.9633C584.689 97.3942 583.692 97.9914 582.49 97.2977C581.745 96.867 581.083 96.0116 580.71 95.076V98.2822L580.235 98.0077V90.8418L580.71 91.1163V92.2461ZM580.71 93.6555C580.71 94.7854 581.493 96.1626 582.462 96.7224C583.432 97.2816 584.214 96.808 584.214 95.6782C584.214 94.5489 583.432 93.1717 582.462 92.6119C581.493 92.0527 580.71 92.5256 580.71 93.6555Z" fill="black"/>
<path fill-rule="evenodd" clip-rule="evenodd" d="M577.672 89.3088C578.79 89.9549 579.694 91.434 579.694 92.8541V93.2094L576.041 91.1004C576.106 92.2677 576.842 93.5104 577.755 94.0376C578.342 94.3766 578.827 94.3875 579.153 94.0702L579.498 94.6029C579.069 94.9793 578.464 94.9738 577.755 94.5648C576.572 93.882 575.557 92.1766 575.557 90.6703C575.557 89.1423 576.525 88.6476 577.672 89.3088ZM577.664 89.8108C576.854 89.3427 576.182 89.6437 576.052 90.6017L579.201 92.4199C579.146 91.3545 578.474 90.279 577.664 89.8108Z" fill="black"/>
<path fill-rule="evenodd" clip-rule="evenodd" d="M575.475 87.9421C575.475 88.9966 574.832 89.5293 573.751 89.0991L575.586 93.2573L574.971 92.9026L573.154 88.7975L571.72 87.9693V91.0247L571.216 90.7345V83.2996L573.369 84.5422C574.729 85.3277 575.475 86.6832 575.475 87.9421ZM571.719 84.1385V87.4093L573.34 88.3455C574.448 88.9855 574.961 88.5174 574.961 87.6463C574.961 86.6673 574.374 85.6719 573.358 85.0856L571.719 84.1385Z" fill="black"/>
<path d="M606.372 102.178V99.1754C606.474 98.1053 607.295 98.0299 608.124 98.6373V98.0673C607.388 97.5135 606.708 97.5509 606.372 98.0998L606.363 97.0828L605.897 96.8137V101.914L606.372 102.188V102.178Z" fill="black"/>
<path fill-rule="evenodd" clip-rule="evenodd" d="M603.325 95.2755C604.443 95.921 605.347 97.4001 605.347 98.8208V99.1755L601.694 97.0665C601.76 98.2344 602.496 99.4771 603.409 100.004C603.996 100.343 604.48 100.354 604.807 100.036L605.151 100.569C604.723 100.945 604.117 100.94 603.409 100.532C602.225 99.8481 601.209 98.1427 601.209 96.6364C601.209 95.1084 602.179 94.6137 603.325 95.2755ZM603.314 95.775C602.504 95.3069 601.833 95.6085 601.703 96.5658L604.852 98.384C604.796 97.3193 604.125 96.2431 603.314 95.775Z" fill="black"/>
<path d="M594.577 92.7852C594.596 91.4508 595.183 91.0798 596.003 91.5528C596.693 91.9509 597.149 92.7207 597.14 93.6298V96.8469L597.615 97.1213V94.5388C597.634 93.2045 598.221 92.8335 599.04 93.307C599.73 93.7052 600.187 94.4743 600.178 95.3834V98.6005L600.652 98.875V95.6361C600.662 94.4471 600.084 93.3927 599.087 92.8172C598.379 92.4082 597.783 92.5481 597.521 93.1291C597.326 92.2634 596.795 91.4937 596.04 91.0581C595.388 90.6817 594.82 90.7836 594.558 91.2783V90.2564L594.083 89.9819V95.0824L594.558 95.3562V92.7744L594.577 92.7852Z" fill="black"/>
<path d="M592.907 94.4036L593.383 94.6781V89.5885L592.907 89.314V91.9074C592.888 93.2417 592.245 93.5802 591.351 93.0638C590.643 92.6548 590.177 91.8802 590.177 90.9657V87.7377L589.702 87.4639V90.7021C589.702 91.8965 590.289 92.9564 591.304 93.5428C592.031 93.9626 592.647 93.8655 592.917 93.3437V94.409L592.907 94.4036Z" fill="black"/>
<path d="M586.266 89.4918L585.996 89.7657C586.406 90.4226 586.956 91.0192 587.664 91.4282C588.494 91.9072 589.155 91.7727 589.155 90.8581C589.155 90.1373 588.848 89.6474 587.869 88.6955L587.496 88.3293C586.946 87.7967 586.648 87.4203 586.648 86.9467C586.648 86.3658 587.114 86.4092 587.552 86.662C587.962 86.8985 588.41 87.4148 588.726 87.9209L589.015 87.6356C588.605 87.0113 588.148 86.522 587.552 86.1776C586.797 85.742 586.182 85.8494 586.182 86.7102C586.182 87.3666 586.527 87.9855 587.356 88.7975L587.776 89.2119C588.4 89.8308 588.689 90.1373 588.689 90.5891C588.689 91.2454 588.195 91.2509 587.664 90.9444C587.114 90.6265 586.62 90.0727 586.266 89.4918Z" fill="black"/>
<path d="M582.293 85.693C582.312 84.3592 582.955 84.0202 583.85 84.5366C584.558 84.9456 585.024 85.7201 585.024 86.6347V89.8518L585.499 90.1262V86.8874C585.499 85.693 584.912 84.6337 583.896 84.0467C583.169 83.6275 582.555 83.724 582.284 84.2458V83.1702L581.809 82.8958V87.9956L582.284 88.2701V85.6882L582.293 85.693Z" fill="black"/>
<path fill-rule="evenodd" clip-rule="evenodd" d="M576.781 82.5507C576.781 81.1198 577.787 80.5281 579.027 81.2435C580.266 81.9589 581.282 83.718 581.282 85.1495C581.282 86.5804 580.266 87.1667 579.027 86.4513C577.787 85.7359 576.781 83.9816 576.781 82.5507ZM577.254 82.8142C577.254 83.944 578.046 85.3267 579.025 85.8913C580.012 86.462 580.804 85.9939 580.804 84.864C580.804 83.7341 580.012 82.3515 579.025 81.7814C578.046 81.2168 577.254 81.6843 577.254 82.8142Z" fill="black"/>
<path d="M576.052 82.9074C575.549 83.37 574.757 83.3863 573.872 82.8748C572.362 82.0037 571.123 79.8676 571.123 78.114C571.123 76.3706 572.362 75.666 573.872 76.5377C574.767 77.0541 575.549 77.9686 576.052 79.0339L576.435 78.824C575.829 77.6242 574.897 76.5377 573.872 75.9459C572.073 74.9077 570.602 75.7577 570.602 77.8232C570.602 79.9002 572.073 82.4501 573.872 83.4883C574.906 84.0855 575.82 84.0638 576.416 83.5474L576.052 82.9074Z" fill="black"/>
<path d="M598.249 99.8414L597.979 99.6858V99.6104L598.584 99.9596V100.035L598.314 99.8794V100.794L598.249 100.756V99.8414Z" fill="black"/>
<path d="M599.561 100.525V101.515L599.496 101.477V100.638L599.179 101.079L599.132 101.052L598.816 100.245V101.084L598.75 101.047V100.057L598.816 100.095L599.161 100.983L599.505 100.493L599.561 100.525Z" fill="black"/>
<path d="M733.535 171.38C733.535 169.153 735.087 168.269 737.002 169.409L816.031 216.426C817.946 217.565 819.498 220.296 819.498 222.524V242.697C819.498 244.925 817.946 245.809 816.031 244.669L737.002 197.652C735.087 196.513 733.535 193.782 733.535 191.554V171.38Z" fill="white"/>
<path d="M746.678 198.837C751.37 201.629 755.174 199.496 755.174 194.073C755.174 188.651 751.37 181.992 746.678 179.2C741.986 176.409 738.182 178.541 738.182 183.964C738.182 189.386 741.986 196.045 746.678 198.837Z" fill="#6085FF"/>
<path fill-rule="evenodd" clip-rule="evenodd" d="M761.289 207.155L761.858 207.494L760.869 203.433L760.268 203.076L759.279 205.954L759.759 206.239L760.008 205.466L761.036 206.078L761.289 207.155ZM760.522 203.846L760.907 205.526L760.132 205.064L760.522 203.846Z" fill="#979797"/>
<path d="M765.541 209.685L765.082 209.412L763.685 205.927V208.581L763.231 208.311V204.846L763.852 205.216L765.087 208.306V205.95L765.541 206.22V209.685Z" fill="#979797"/>
<path fill-rule="evenodd" clip-rule="evenodd" d="M766.43 209.056L767.912 209.938L767.917 209.881C767.927 209.589 767.867 209.257 767.741 208.921C767.578 208.5 767.272 208.126 766.948 207.949C766.306 207.567 765.933 207.985 765.933 208.708C765.933 209.431 766.319 210.205 766.965 210.59C767.355 210.83 767.718 210.806 767.909 210.527L767.565 210.114C767.46 210.3 767.243 210.328 767.004 210.189C766.679 209.995 766.43 209.56 766.43 209.056ZM766.96 208.368C767.278 208.557 767.415 208.921 767.415 209.282L766.441 208.703C766.441 208.43 766.583 208.143 766.96 208.368Z" fill="#979797"/>
<path d="M770.871 210.336L770.199 212.457L769.839 212.242L769.406 210.223L768.969 211.725L768.608 211.511L767.945 208.595L768.45 208.896L768.849 210.817L769.274 209.386L769.634 209.6L770.059 211.551L770.474 210.1L770.871 210.336Z" fill="#979797"/>
<path d="M774.105 211.315L773.097 212.76V214.181L772.544 213.851V212.44L771.516 209.775L772.124 210.137L772.865 212.112L773.594 211.011L774.105 211.315Z" fill="#979797"/>
<path fill-rule="evenodd" clip-rule="evenodd" d="M773.852 213.373C773.852 214.164 774.269 214.938 774.859 215.289C775.463 215.648 775.87 215.351 775.87 214.573C775.87 213.795 775.481 213.029 774.859 212.659C774.195 212.264 773.852 212.675 773.852 213.373ZM774.374 213.682C774.374 213.167 774.494 212.862 774.862 213.081V213.076C775.239 213.3 775.35 213.763 775.35 214.264C775.35 214.792 775.227 215.085 774.862 214.869C774.498 214.651 774.374 214.198 774.374 213.682Z" fill="#979797"/>
<path d="M777.471 214.849L777.458 214.841C777.371 214.762 777.282 214.696 777.192 214.643C776.994 214.523 776.807 214.521 776.691 214.637V216.32L776.194 216.024V213.504L776.675 213.79V214.28C776.808 214.138 777.099 213.999 777.472 214.221L777.471 214.849Z" fill="#979797"/>
<path d="M779.629 218.068L779.085 217.744L778.524 216.183L778.198 216.435V217.212L777.702 216.917V213.456L778.198 213.751V215.89L779.056 215.208L779.57 215.513L778.88 215.989L779.629 218.068Z" fill="#979797"/>
<path d="M782.624 216.903L781.779 216.401V219.346L781.226 219.017V216.071L780.378 215.567V215.048L782.619 216.381L782.624 216.903Z" fill="#979797"/>
<path fill-rule="evenodd" clip-rule="evenodd" d="M782.871 217.064L783.882 217.666V217.132L782.871 216.53V217.064ZM782.889 220.006L783.882 220.596V218.076L782.889 217.485V220.006Z" fill="#979797"/>
<path d="M786.89 222.386L786.389 222.088V220.376C786.389 220.158 786.321 219.939 786.072 219.79C785.88 219.676 785.695 219.759 785.6 219.797V221.618L785.103 221.323V219.611C785.103 219.393 785.035 219.174 784.786 219.025C784.594 218.911 784.405 218.996 784.314 219.036V220.853L783.818 220.558V218.038L784.306 218.328V218.695C784.443 218.607 784.64 218.478 785.013 218.7C785.262 218.831 785.487 219.15 785.554 219.468C785.73 219.363 785.922 219.241 786.3 219.465C786.526 219.588 786.734 219.866 786.818 220.159C786.864 220.326 786.887 220.488 786.887 220.637L786.89 222.386Z" fill="#979797"/>
<path fill-rule="evenodd" clip-rule="evenodd" d="M787.705 221.712L789.188 222.595L789.193 222.539C789.204 222.247 789.143 221.915 789.018 221.579C788.854 221.158 788.549 220.783 788.225 220.607C787.582 220.224 787.209 220.643 787.209 221.366C787.209 222.088 787.594 222.862 788.241 223.247C788.631 223.487 788.993 223.463 789.185 223.184L788.841 222.772C788.736 222.956 788.519 222.985 788.28 222.847C787.955 222.653 787.705 222.217 787.705 221.712ZM788.24 221.023C788.557 221.212 788.694 221.576 788.694 221.937L787.721 221.358C787.721 221.085 787.862 220.798 788.24 221.023Z" fill="#979797"/>
<path d="M790.278 224.464C789.87 224.222 789.562 223.895 789.364 223.362L789.703 223.291C789.816 223.621 790.053 223.923 790.307 224.059C790.53 224.191 790.727 224.205 790.727 223.997C790.727 223.854 790.654 223.72 790.47 223.556C790.286 223.392 790.097 223.27 789.921 223.1C789.587 222.774 789.441 222.463 789.441 222.107C789.445 221.883 789.542 221.731 789.703 221.699C789.87 221.654 790.073 221.7 790.281 221.83C790.667 222.059 790.916 222.344 791.121 222.835L790.761 222.879C790.673 222.608 790.484 222.356 790.276 222.229C790.04 222.089 789.891 222.136 789.891 222.312C789.891 222.448 789.977 222.586 790.148 222.738C790.281 222.851 790.405 222.95 790.594 223.112C790.941 223.407 791.193 223.771 791.193 224.191C791.194 224.663 790.8 224.775 790.278 224.464Z" fill="#979797"/>
<path d="M794.692 225.936C794.517 226.65 794.07 226.725 793.492 226.381C792.773 225.953 792.241 224.983 792.241 223.854C792.241 222.809 792.729 222.346 793.53 222.823C794.173 223.205 794.559 223.914 794.661 224.664L794.118 224.414C794.066 223.997 793.882 223.527 793.509 223.305C793.06 223.037 792.819 223.394 792.819 224.192C792.819 225.099 793.123 225.655 793.543 225.905C793.921 226.13 794.181 225.982 794.289 225.572L794.692 225.936Z" fill="#979797"/>
<path fill-rule="evenodd" clip-rule="evenodd" d="M794.894 225.891C794.894 226.683 795.311 227.456 795.901 227.807C796.505 228.167 796.912 227.87 796.912 227.092C796.912 226.313 796.523 225.547 795.901 225.177C795.237 224.782 794.894 225.193 794.894 225.891ZM795.411 226.199C795.411 225.684 795.531 225.379 795.899 225.598V225.592C796.279 225.819 796.387 226.28 796.387 226.78C796.387 227.309 796.263 227.602 795.899 227.385C795.534 227.168 795.411 226.714 795.411 226.199Z" fill="#979797"/>
<path d="M800.301 230.365L799.799 230.066V228.354C799.799 228.137 799.731 227.917 799.482 227.769C799.29 227.655 799.105 227.738 799.01 227.776V229.597L798.523 229.307V227.595C798.523 227.377 798.455 227.158 798.206 227.01C798.014 226.895 797.825 226.981 797.734 227.021V228.838L797.237 228.542V226.022L797.726 226.312V226.679C797.863 226.592 798.06 226.462 798.434 226.685C798.682 226.816 798.907 227.135 798.974 227.451C799.15 227.348 799.342 227.225 799.72 227.45C799.946 227.572 800.154 227.851 800.238 228.144C800.284 228.31 800.307 228.472 800.307 228.621L800.301 230.365Z" fill="#979797"/>
<path fill-rule="evenodd" clip-rule="evenodd" d="M801.237 230.663C801.389 230.945 801.602 231.184 801.827 231.326C802.265 231.588 802.668 231.441 802.672 230.522C802.672 229.774 802.407 229.052 801.88 228.738C801.631 228.589 801.394 228.578 801.237 228.708V228.401L800.74 228.105V231.448L801.237 231.743V230.663ZM801.236 229.04C801.348 228.959 801.506 228.96 801.676 229.044L801.682 229.047C801.986 229.229 802.149 229.583 802.144 230.225C802.144 230.725 802.02 231.022 801.682 230.821C801.516 230.707 801.36 230.538 801.236 230.338V229.04Z" fill="#979797"/>
<path fill-rule="evenodd" clip-rule="evenodd" d="M804.268 232.724L804.764 233.02L804.765 233.007C804.715 232.815 804.692 232.63 804.697 232.462V231.258C804.697 231.05 804.686 230.849 804.568 230.636C804.4 230.328 804.209 230.125 803.844 229.908C803.312 229.592 803.038 229.696 802.952 230.085L803.394 230.457C803.423 230.331 803.483 230.094 803.795 230.281C804.108 230.466 804.215 230.699 804.215 230.921V231.09C803.264 230.588 802.858 230.717 802.858 231.237C802.858 231.722 803.202 232.14 803.556 232.35C803.806 232.477 804.042 232.501 804.228 232.419C804.235 232.518 804.248 232.62 804.268 232.724ZM803.361 231.474C803.361 231.156 803.666 231.175 804.214 231.426L804.212 232.104C804.076 232.165 803.899 232.14 803.715 232.037C803.421 231.862 803.361 231.638 803.361 231.474Z" fill="#979797"/>
<path d="M806.963 234.33L806.462 234.032V232.333C806.462 232.1 806.376 231.874 806.124 231.723C805.914 231.599 805.721 231.682 805.631 231.722V233.537L805.134 233.242V230.721L805.622 231.012V231.388C805.759 231.306 805.966 231.171 806.35 231.4C806.583 231.525 806.799 231.807 806.894 232.11C806.944 232.28 806.967 232.446 806.962 232.596L806.963 234.33Z" fill="#979797"/>
<path d="M809.102 233.081L808.283 235.228C808.116 235.663 807.893 235.703 807.504 235.471C807.409 235.415 807.314 235.35 807.221 235.278V234.817C807.289 234.868 807.426 234.964 807.486 235C807.735 235.148 807.863 235.125 807.898 234.908C807.898 234.878 807.829 234.595 807.811 234.526L807.095 231.886L807.622 232.2L808.163 234.338L808.694 232.837L809.102 233.081Z" fill="#979797"/>
<path d="M769.303 197.376C769.941 197.756 770.458 197.465 770.458 196.729C770.458 195.992 769.941 195.087 769.303 194.707C768.665 194.328 768.148 194.617 768.148 195.355C768.148 196.092 768.665 196.997 769.303 197.376Z" fill="black"/>
<path d="M764.899 199.867L764.954 199.9L766.141 196.517L767.972 197.607L766.005 203.168L764.033 201.995L763.028 197.334L762.972 197.301L761.981 200.775L760.014 199.605L758.046 191.701L760.052 192.895L761.238 197.69L761.294 197.722L762.285 194.223L763.904 195.186L764.899 199.867Z" fill="black"/>
<rect x="768.408" y="197.861" width="1.88967" height="7.85648" fill="black"/>
<path d="M775.464 204.198C775.16 203.821 774.815 203.521 774.467 203.332C773.68 202.864 773.155 203.067 773.155 204.235V207.419L771.268 206.296V199.564L773.155 200.687V201.914C773.378 201.288 773.981 200.994 774.769 201.463C775.058 201.621 775.344 201.887 775.582 202.22L775.464 204.198Z" fill="black"/>
<path d="M792.805 212.378L794.708 213.51V220.242L792.805 219.111V218.065C792.491 218.635 791.835 218.714 790.956 218.191C789.381 217.254 788.884 215.716 788.884 214.274V210.049L790.771 211.172V214.871C790.771 215.825 791.047 216.522 791.742 216.935C792.436 217.348 792.803 216.885 792.803 215.808L792.805 212.378Z" fill="black"/>
<path d="M814.628 227.498C814.324 227.121 813.979 226.821 813.632 226.632C812.845 226.164 812.32 226.367 812.32 227.535V230.719L810.433 229.596V222.864L812.32 223.987V225.214C812.543 224.588 813.145 224.294 813.933 224.763C814.223 224.921 814.509 225.187 814.748 225.52L814.628 227.498Z" fill="black"/>
<path fill-rule="evenodd" clip-rule="evenodd" d="M777.613 207.189C777.666 208.117 778.244 208.975 778.978 209.412C779.556 209.756 779.941 209.761 780.169 209.417L781.702 210.601C781.327 211.713 780.333 211.869 778.918 211.027C777.067 209.926 775.756 207.823 775.756 205.704C775.756 203.584 777.088 202.845 778.872 203.906C780.802 205.054 781.812 207.186 781.812 209.02V209.687L777.613 207.189ZM779.991 207.435C779.951 206.745 779.585 205.92 778.863 205.491L778.861 205.489C778.101 205.037 777.747 205.387 777.645 206.04L779.991 207.435Z" fill="black"/>
<path fill-rule="evenodd" clip-rule="evenodd" d="M805.664 223.877C805.717 224.804 806.294 225.662 807.029 226.1C807.604 226.442 807.996 226.448 808.221 226.101L809.749 227.283C809.375 228.399 808.378 228.555 806.962 227.713C805.112 226.612 803.8 224.512 803.8 222.39C803.8 220.268 805.138 219.531 806.923 220.593C808.852 221.742 809.862 223.873 809.862 225.707V226.374L805.664 223.877ZM808.039 224.123C807.999 223.432 807.632 222.608 806.91 222.178L806.909 222.177C806.148 221.724 805.794 222.074 805.689 222.725L808.039 224.123Z" fill="black"/>
<path d="M785.43 213.23C784.694 212.793 784.183 211.896 784.183 210.608C784.183 209.32 784.694 209.033 785.43 209.47C786.116 209.879 786.531 210.582 786.675 211.525L788.243 212.24C788.049 210.593 787.088 208.79 785.412 207.793C783.588 206.708 782.262 207.345 782.262 209.463C782.262 211.581 783.588 213.796 785.412 214.881C786.945 215.793 787.883 215.326 788.177 214.138L786.596 212.925C786.406 213.465 786.019 213.58 785.43 213.23Z" fill="black"/>
<path d="M798.544 221.062C797.955 220.71 797.862 220.147 797.862 219.565V216.917L799.16 217.689V216.158L797.862 215.386V213.652L796.694 212.958L796.659 213.376C796.585 213.953 796.208 214.392 795.521 213.984L795.185 213.783V215.318L795.999 215.802V219.205C795.999 220.721 796.851 221.698 797.797 222.26C798.254 222.537 798.712 222.755 799.16 222.909V221.365C798.958 221.298 798.751 221.196 798.544 221.062Z" fill="black"/>
<path d="M802.904 223.655C802.314 223.305 802.222 222.741 802.222 222.159V219.511L803.52 220.283V218.752L802.222 217.98V216.246L801.055 215.552L801.019 215.969C800.945 216.547 800.567 216.986 799.881 216.578L799.546 216.378V217.913L800.36 218.397V221.8C800.36 223.316 801.213 224.293 802.157 224.855C802.616 225.132 803.073 225.35 803.521 225.504V223.96C803.319 223.893 803.111 223.79 802.904 223.655Z" fill="black"/>
<path d="M748.525 191.26V187.186C748.501 187.269 748.465 187.339 748.417 187.394L746.874 189.182V193.294C746.894 193.186 746.934 193.095 746.992 193.026L748.525 191.26Z" fill="#BFCEFF"/>
<path d="M744.252 188.697V184.658C744.211 184.794 744.135 184.894 744.032 184.95C743.628 185.264 743.144 185.445 742.601 185.485V190.694C742.625 190.611 742.661 190.541 742.708 190.486L744.252 188.697Z" fill="#BFCEFF"/>
<path d="M744.05 183.568C743.722 182.98 743.18 182.647 742.841 182.824L742.817 182.836C742.799 182.846 742.78 182.858 742.762 182.871C742.203 183.292 741.627 183.376 741.053 183.123C740.743 182.977 740.477 183.047 740.355 183.305C740.234 183.564 740.278 183.971 740.469 184.367C740.661 184.764 740.97 185.089 741.277 185.215C741.743 185.418 742.192 185.509 742.601 185.484C743.144 185.444 743.629 185.263 744.032 184.949C744.368 184.768 744.375 184.151 744.048 183.566L744.05 183.568Z" fill="white"/>
<path d="M752.468 188.461C752.283 188.208 752.056 188.022 751.837 187.943C751.619 187.865 751.427 187.9 751.304 188.041L748.529 191.257L746.995 193.029C746.817 193.212 746.789 193.575 746.923 193.975C747.058 194.375 747.333 194.748 747.641 194.948C747.948 195.147 748.239 195.142 748.399 194.933L752.707 189.946C752.962 189.65 752.854 188.985 752.468 188.461Z" fill="white"/>
<path d="M748.181 185.912C747.995 185.659 747.769 185.472 747.55 185.394C747.332 185.315 747.14 185.351 747.017 185.492L744.254 188.693L742.71 190.481C742.496 190.727 742.531 191.242 742.796 191.728C743.059 192.213 743.483 192.542 743.822 192.524C743.845 192.523 743.869 192.521 743.891 192.517L743.897 192.52C744.003 192.499 744.09 192.439 744.152 192.346L746.876 189.196L748.421 187.396C748.677 187.101 748.571 186.436 748.185 185.91L748.181 185.912Z" fill="white"/>
<path d="M387.329 178.833C389.817 180.927 391.971 180.874 390.658 182.162C389.013 183.776 386.993 182.742 385.113 182.04C384.224 181.694 383.429 181.143 382.794 180.432C382.008 179.412 381.223 179.917 379.745 179.412C378.268 178.907 378.09 177.467 378.735 175.223C379.38 172.979 383.673 175.223 384.599 175.906C385.579 176.814 386.491 177.792 387.329 178.833Z" fill="#4F5162"/>
<path d="M381.501 89.6165C379.995 87.3769 381.226 88.4993 383.557 87.1071C383.231 82.4292 383.78 78.8803 379.461 76.0298C375.143 73.1793 372.395 76.6016 371.917 81.6283C371.682 84.7374 375.653 91.5553 375.653 91.5553H376.536L378.429 91.7416C378.429 91.7416 381.043 92.6926 381.501 89.6165Z" fill="#F5D5D5"/>
<path d="M396.087 171.952C398.324 173.836 400.502 174.102 399.081 174.946C397.128 176.105 395.784 175.467 394.094 174.836C393.296 174.521 392.583 174.027 392.009 173.39C391.303 172.465 390.596 172.928 389.276 172.465C387.956 172.003 387.779 170.724 388.359 168.706C388.94 166.688 392.799 168.664 393.632 169.32C394.513 170.137 395.334 171.016 396.087 171.952Z" fill="#404255"/>
<path d="M395.201 125.659C395.201 140.135 395.751 140.518 394.889 149.198C394.027 157.877 394.889 165.513 393.334 169.181C392.317 171.58 386.913 170.266 387.203 167.262C387.477 164.412 386.615 144.655 385.966 139.432C385.317 134.209 384.302 111.729 384.302 111.729L388.398 102.998L395.201 125.659Z" fill="#3640A3"/>
<path d="M390.622 125.841C390.622 133.113 390.318 136.734 389.465 145.414C388.612 154.093 386.504 173.809 383.983 175.532C381.766 177.046 378.223 176.248 378.513 173.244C378.786 170.402 377.924 150.637 377.275 145.414C376.627 140.19 374.261 122.706 374.261 122.706L390.622 125.841Z" fill="#4752C5"/>
<path d="M376.462 81.1752C375.711 80.2961 376.197 79.4683 376.197 79.4683C376.197 79.4683 377.11 78.6575 378.254 78.6746C379.344 78.6132 380.741 78.3996 381.789 78.0923C381.789 77.1319 381.378 76.4119 380.846 75.723C376.546 72.1508 371.258 75.5919 369.644 79.6549C368.048 83.6746 372.101 88.6598 373.193 89.2146C374.046 89.6669 375.22 88.5296 375.22 88.5296C375.22 88.5296 374.935 86.1105 374.729 84.5633C374.592 83.5326 373.935 82.5748 374.362 81.9262C374.808 81.2494 375.762 81.6872 376.334 82.5748C378.254 84.9374 376.862 82.1098 376.462 81.1752Z" fill="#4F5162"/>
<path d="M392.261 84.0611C391.249 82.6587 386.968 80.3219 388.63 82.0827C390.292 83.8436 390.97 86.1964 390.97 86.1964C390.97 86.1964 387.44 82.3417 391.189 88.7025C391.69 89.5526 392.346 89.8446 393.122 90.3301C393.324 90.2958 396.946 91.3026 394.001 88.1014C393.843 87.1525 393.268 85.4558 392.261 84.0611Z" fill="#F5D5D5"/>
<path fill-rule="evenodd" clip-rule="evenodd" d="M374.903 93.9991C371.597 95.0662 370.551 96.5337 370.551 96.5337C370.507 96.585 370.466 96.6397 370.425 96.6974C365.006 102.092 354.466 119.626 360.358 124.945C364.096 128.359 371.768 129.639 372.613 128.777C372.768 128.648 372.905 128.502 373.023 128.343C373.052 129.002 373.089 129.802 373.138 130.779C374.777 135.149 394.018 136.361 395.722 126.845C396.711 121.327 392.147 104.581 392.147 104.581C392.147 104.581 394.513 109.606 401.758 109.973C409.004 110.34 395.736 89.0801 393.993 86.9243C392.147 88.2386 391.712 89.826 392.147 90.8416C392.833 92.2992 393.348 93.7874 393.86 95.2673C394.574 97.3297 395.283 99.376 396.439 101.301C396.125 100.958 395.707 100.426 395.2 99.782C393.019 97.0109 389.203 92.1613 385.048 91.3442C382.074 92.173 381.521 89.6405 381.521 89.6405C379.695 91.3442 378.188 91.6645 375.569 91.3442C375.569 91.3442 375.708 91.7882 374.903 93.9991ZM372.869 125.098C372.86 125.03 372.85 124.968 372.837 124.906C372.732 124.383 372.481 123.888 371.692 119.773C371.692 119.772 371.686 119.746 371.676 119.696C371.577 119.216 371.028 116.547 370.5 113.162C370.184 113.657 369.866 114.151 369.557 114.633C368.131 116.853 366.886 118.79 366.886 119.176C366.886 121.352 372.613 124.851 372.613 124.851C372.704 124.928 372.79 125.011 372.869 125.098Z" fill="#4F5162"/>
<path d="M371.451 124.247C372.304 122.275 372.21 123.939 374.267 125.356C375.91 125.99 377.633 126.395 379.388 126.559C381.53 126.747 380.446 130.212 376.956 130.494C373.465 130.775 373.448 129.384 371.92 128.676C369.889 127.746 371.451 124.247 371.451 124.247Z" fill="#F5D5D5"/>
<path d="M698.959 279.25C703.026 279.25 706.317 277.353 706.317 275.01C706.317 272.668 703.026 270.769 698.959 270.769C694.893 270.769 691.602 272.668 691.602 275.01C691.602 277.353 694.893 279.25 698.959 279.25Z" fill="#64647D"/>
<path d="M719.844 290.352C723.911 290.352 727.202 288.455 727.202 286.111C727.202 283.77 723.911 281.871 719.844 281.871C715.778 281.871 712.487 283.77 712.487 286.111C712.487 288.455 715.778 290.352 719.844 290.352Z" fill="#64647D"/>
<path d="M740.824 301.459C744.891 301.459 748.182 299.562 748.182 297.219C748.182 294.877 744.891 292.978 740.824 292.978C736.758 292.978 733.467 294.877 733.467 297.219C733.467 299.562 736.758 301.459 740.824 301.459Z" fill="#64647D"/>
<rect opacity="0.23" width="60.7004" height="33.0454" rx="3.38641" transform="matrix(0.866025 0.5 0 1 695.21 71.4741)" fill="white"/>
<rect opacity="0.23" width="60.7004" height="33.0454" rx="3.38641" transform="matrix(0.866025 0.5 0 1 690.891 73.9446)" fill="white"/>
<rect width="60.7004" height="33.0454" rx="3.38641" transform="matrix(0.866025 0.5 0 1 686.571 76.4146)" fill="white"/>
<path d="M697.478 89.5841C694.053 87.6066 691.662 87.0389 689.236 88.203C689.088 88.2739 689.007 88.4491 689.007 88.6805V106.973C689.007 107.441 689.335 108.009 689.74 108.243L736.656 135.33C737.061 135.564 737.39 135.375 737.39 134.907V132.105C737.39 131.508 736.851 130.744 736.334 130.456C735.688 130.096 735 129.583 734.432 129.255C729.105 126.179 724.227 121.195 721.542 115.429C720.403 112.982 718.622 109.868 717.014 107.995C715.442 106.163 712.452 105.422 711.281 103.443C709.614 100.623 709.128 92.7799 706.918 91.5036C705.365 90.6073 704.074 96.9294 702.645 95.6728C700.252 93.5674 700.386 91.2626 697.478 89.5841Z" fill="#20D19C"/>
<path d="M689.007 88.3181C691.512 87.0046 693.945 87.5443 697.478 89.5841C700.386 91.2626 700.252 93.5674 702.645 95.6728C704.074 96.9294 705.365 90.6073 706.918 91.5036C709.128 92.7799 709.614 100.623 711.281 103.443C712.452 105.422 715.442 106.163 717.014 107.995C718.622 109.868 720.403 112.982 721.542 115.429C724.227 121.195 729.105 126.179 734.432 129.255C735.331 129.774 736.529 130.756 737.39 130.863" stroke="#33955A" stroke-width="0.564402" stroke-linecap="round" stroke-linejoin="round"/>
<path d="M705.41 109.555C705.41 106.569 702.06 105.469 702.06 103.934C702.06 103.33 702.437 103.173 703.034 103.517C703.808 103.965 704.154 104.841 704.185 105.294L705.378 105.645C705.242 104.865 704.813 103.505 703.463 102.52V101.324L702.573 100.81V102.007C701.453 101.553 700.741 102.061 700.741 103.245C700.741 106.025 704.101 107.059 704.101 108.824C704.101 109.392 703.735 109.531 703.034 109.126C702.175 108.63 701.505 107.639 701.212 107.156L700.438 107.82C700.762 108.358 701.505 109.355 702.573 110.093V111.289L703.463 111.803V110.606C704.75 111.18 705.41 110.679 705.41 109.555Z" fill="#0F3D21"/>
<path fill-rule="evenodd" clip-rule="evenodd" d="M520.869 101.088C520.504 99.3072 519.437 97.4526 518.084 96.2484C515.612 94.0356 505.722 88.326 505.722 88.326C505.722 88.326 495.833 82.6165 493.361 81.9443C492.034 81.601 490.941 82.2387 490.576 83.5992C489.926 86.0935 489.926 92.0447 489.926 92.0447C489.926 92.0447 489.926 98.0261 490.576 101.241C490.941 103.023 492.008 104.877 493.361 106.081C495.859 108.309 505.722 114.004 505.722 114.004C505.722 114.004 515.612 119.713 518.084 120.385C519.437 120.744 520.504 120.121 520.869 118.761C521.519 116.267 521.519 110.315 521.519 110.315C521.519 110.315 521.545 104.349 520.869 101.088Z" fill="#D32F2F"/>
<path fill-rule="evenodd" clip-rule="evenodd" d="M503.181 104.523L510.273 104.058L503.181 95.4045V104.523Z" fill="white"/>
<path d="M641.117 122.388V126.4L643.473 127.802V138.382L647.455 140.751V126.159L641.117 122.388ZM654.18 135.705L652.316 134.596V133.056L653.254 133.614V129.609L648.34 126.685V141.277L652.316 143.643V138.125L654.18 139.234V144.752L658.168 147.125V132.532L654.18 130.16V135.705ZM659.04 147.644L666.418 152.033V148.014L662.845 145.888V144.189L665.118 145.541V142.213L662.845 140.86V139.327L666.418 141.453V137.441L659.04 133.052V147.644ZM697.784 161.039C697.784 157.89 695.784 154.912 692.947 153.224L688.514 150.586V165.172L692.496 167.541V163.805L694.775 168.897L699.268 171.57L696.039 164.055C697.203 164.008 697.784 163.008 697.784 161.039ZM692.484 159.502V156.788C693.036 157.117 693.713 157.713 693.915 158.537C693.932 158.61 693.944 158.686 693.962 158.766C693.962 158.772 693.962 158.786 693.968 158.797C693.974 158.869 693.986 158.959 693.986 159.042C693.986 160.126 693.137 159.891 692.484 159.502ZM674.305 151.021L674.27 151L673.985 149.629L673.095 145.432L674.661 146.364L675.694 142.959L667.741 138.228L672.299 155.525L676.383 157.954L676.875 156.687C676.875 156.687 679.059 151.094 680.252 148.047V160.257L687.629 164.646V160.626L684.057 158.501V156.802L686.324 158.151V154.829L684.057 153.48V151.947L687.629 154.073V150.053L676.608 143.496L674.305 151.021ZM717.085 171.604V167.591L709.708 163.202V177.788L717.085 182.177V178.157L713.506 176.028V174.329L715.779 175.682V172.367L713.506 171.015V169.474" fill="white"/>
<path d="M708.944 174.273V168.327L703.318 164.979V168.294L705.413 169.541V170.721C705.253 170.792 704.908 170.677 704.552 170.465C703.092 169.596 702.012 167.614 702.012 165.977C702.012 164.341 703.063 163.515 704.523 164.384C705.407 164.91 707.502 166.163 707.502 166.163V161.84L706.546 161.272C704.766 160.212 702.991 158.991 701.359 159.001C700.071 159.008 699.051 159.713 698.51 160.952C698.196 161.683 698.036 162.583 698.036 163.57C698.036 167.707 700.825 172.854 704.44 175.004C706.232 176.071 707.983 176.332 708.938 175.927C708.944 174.922 708.944 174.77 708.944 174.273Z" fill="white"/>
<path d="M637.028 119.909L630.434 129.307L625.491 116.376L632.082 120.297L632.907 119.123L623.015 113.238L629.608 130.481L631.258 131.463L637.853 122.065L637.028 119.909V119.909Z" fill="#DCE1E6"/>
<path d="M635.368 118.919L630.407 125.964L627.101 117.333L625.448 116.35L630.407 129.296L637.022 119.903L635.368 118.919V118.919Z" fill="#FA4B2A"/>
<path d="M623.015 113.242L632.891 119.117L629.599 123.834L630.422 125.993L635.36 118.917L623.838 112.062L623.015 113.241V113.242Z" fill="#5564BE"/>
<ellipse rx="15.1195" ry="15.1195" transform="matrix(0.866025 0.5 0 1 556.301 128.669)" fill="#FF4500"/>
<path fill-rule="evenodd" clip-rule="evenodd" d="M563.936 131.123C564.639 131.855 565.11 132.896 565.138 133.782C565.149 134.639 564.734 135.181 564.07 135.176C564.084 135.406 564.084 135.628 564.07 135.841C564.07 139.228 560.628 139.993 556.382 137.541C552.136 135.09 548.694 130.351 548.694 126.964C548.679 126.734 548.679 126.512 548.694 126.299C548.001 125.534 547.561 124.48 547.572 123.612C547.584 122.744 548.045 122.226 548.747 122.291C549.45 122.356 550.261 122.991 550.817 123.911C552.336 123.607 554.124 123.992 555.96 125.021L556.935 120.337C556.958 120.228 557.022 120.157 557.113 120.142C557.205 120.127 557.317 120.168 557.423 120.256L560.654 122.862C560.98 122.409 561.665 122.528 562.269 123.145C562.873 123.761 563.219 124.692 563.084 125.341C562.949 125.989 562.373 126.164 561.726 125.752C561.079 125.34 560.552 124.464 560.483 123.686L557.661 121.376L556.804 125.599C558.617 126.69 560.38 128.354 561.881 130.389C562.428 130.103 563.233 130.39 563.936 131.123ZM553.269 126.929C552.541 126.509 551.951 126.845 551.951 127.68C551.951 128.081 552.09 128.546 552.337 128.972C552.584 129.398 552.92 129.751 553.269 129.953C553.998 130.374 554.588 130.038 554.588 129.203C554.588 128.367 553.998 127.35 553.269 126.929ZM559.613 136.263C558.677 136.531 557.526 136.278 556.356 135.546C555.185 134.926 554.034 133.85 553.098 132.502C552.982 132.272 552.992 132.041 553.122 131.967C553.251 131.894 553.458 132.001 553.6 132.216C554.392 133.341 555.36 134.236 556.342 134.752C557.326 135.382 558.298 135.618 559.098 135.421C559.193 135.37 559.329 135.409 559.455 135.523C559.582 135.637 559.68 135.809 559.713 135.974C559.745 136.139 559.707 136.272 559.613 136.323V136.263ZM558.056 131.266C558.056 132.102 558.646 133.119 559.375 133.54L559.361 133.593C559.723 133.806 560.07 133.84 560.322 133.689C560.573 133.537 560.708 133.212 560.693 132.789C560.693 131.954 560.103 130.936 559.375 130.516C558.646 130.095 558.056 130.431 558.056 131.266Z" fill="white"/>
<defs>
<filter id="filter0_d" x="-61.8421" y="54.7978" width="840.397" height="755.779" filterUnits="userSpaceOnUse" color-interpolation-filters="sRGB">
<feFlood flood-opacity="0" result="BackgroundImageFix"/>
<feColorMatrix in="SourceAlpha" type="matrix" values="0 0 0 0 0 0 0 0 0 0 0 0 0 0 0 0 0 0 127 0"/>
<feOffset dy="5.55342"/>
<feGaussianBlur stdDeviation="3.70228"/>
<feColorMatrix type="matrix" values="0 0 0 0 0.141354 0 0 0 0 0.16651 0 0 0 0 0.191667 0 0 0 0.35 0"/>
<feBlend mode="normal" in2="BackgroundImageFix" result="effect1_dropShadow"/>
<feBlend mode="normal" in="SourceGraphic" in2="effect1_dropShadow" result="shape"/>
</filter>
<filter id="filter1_i" x="-288.938" y="-240.85" width="856.089" height="517.373" filterUnits="userSpaceOnUse" color-interpolation-filters="sRGB">
<feFlood flood-opacity="0" result="BackgroundImageFix"/>
<feBlend mode="normal" in="SourceGraphic" in2="BackgroundImageFix" result="shape"/>
<feColorMatrix in="SourceAlpha" type="matrix" values="0 0 0 0 0 0 0 0 0 0 0 0 0 0 0 0 0 0 127 0" result="hardAlpha"/>
<feOffset dy="7.40456"/>
<feGaussianBlur stdDeviation="7.40456"/>
<feComposite in2="hardAlpha" operator="arithmetic" k2="-1" k3="1"/>
<feColorMatrix type="matrix" values="0 0 0 0 0 0 0 0 0 0 0 0 0 0 0 0 0 0 0.1 0"/>
<feBlend mode="normal" in2="shape" result="effect1_innerShadow"/>
</filter>
<filter id="filter2_i" x="614.955" y="284.773" width="21.3293" height="18.9385" filterUnits="userSpaceOnUse" color-interpolation-filters="sRGB">
<feFlood flood-opacity="0" result="BackgroundImageFix"/>
<feBlend mode="normal" in="SourceGraphic" in2="BackgroundImageFix" result="shape"/>
<feColorMatrix in="SourceAlpha" type="matrix" values="0 0 0 0 0 0 0 0 0 0 0 0 0 0 0 0 0 0 127 0" result="hardAlpha"/>
<feOffset dy="2.46819"/>
<feGaussianBlur stdDeviation="1.23409"/>
<feComposite in2="hardAlpha" operator="arithmetic" k2="-1" k3="1"/>
<feColorMatrix type="matrix" values="0 0 0 0 0 0 0 0 0 0 0 0 0 0 0 0 0 0 0.08 0"/>
<feBlend mode="normal" in2="shape" result="effect1_innerShadow"/>
</filter>
<filter id="filter3_i" x="614.355" y="300.651" width="21.4387" height="19.0461" filterUnits="userSpaceOnUse" color-interpolation-filters="sRGB">
<feFlood flood-opacity="0" result="BackgroundImageFix"/>
<feBlend mode="normal" in="SourceGraphic" in2="BackgroundImageFix" result="shape"/>
<feColorMatrix in="SourceAlpha" type="matrix" values="0 0 0 0 0 0 0 0 0 0 0 0 0 0 0 0 0 0 127 0" result="hardAlpha"/>
<feOffset dy="2.46819"/>
<feGaussianBlur stdDeviation="1.23409"/>
<feComposite in2="hardAlpha" operator="arithmetic" k2="-1" k3="1"/>
<feColorMatrix type="matrix" values="0 0 0 0 0 0 0 0 0 0 0 0 0 0 0 0 0 0 0.08 0"/>
<feBlend mode="normal" in2="shape" result="effect1_innerShadow"/>
</filter>
<filter id="filter4_i" x="635.195" y="301.243" width="21.3293" height="18.9385" filterUnits="userSpaceOnUse" color-interpolation-filters="sRGB">
<feFlood flood-opacity="0" result="BackgroundImageFix"/>
<feBlend mode="normal" in="SourceGraphic" in2="BackgroundImageFix" result="shape"/>
<feColorMatrix in="SourceAlpha" type="matrix" values="0 0 0 0 0 0 0 0 0 0 0 0 0 0 0 0 0 0 127 0" result="hardAlpha"/>
<feOffset dy="2.46819"/>
<feGaussianBlur stdDeviation="1.23409"/>
<feComposite in2="hardAlpha" operator="arithmetic" k2="-1" k3="1"/>
<feColorMatrix type="matrix" values="0 0 0 0 0 0 0 0 0 0 0 0 0 0 0 0 0 0 0.08 0"/>
<feBlend mode="normal" in2="shape" result="effect1_innerShadow"/>
</filter>
<linearGradient id="paint0_linear" x1="617.109" y1="369.934" x2="696.571" y2="369.934" gradientUnits="userSpaceOnUse">
<stop stop-color="#2B3551"/>
<stop offset="1" stop-color="#2B3350" stop-opacity="0"/>
</linearGradient>
</defs>
</svg>
